<mxfile host="app.diagrams.net" modified="2023-10-10T11:43:59.385Z" agent="Mozilla/5.0 (Macintosh; Intel Mac OS X 10_15_7) AppleWebKit/537.36 (KHTML, like Gecko) Chrome/117.0.0.0 Safari/537.36" version="21.1.1" etag="1VUl5PvhwQNVtMe4B7ef" type="github">
  <diagram name="Page-1" id="jfES8ET0PWT9e8EepIy3">
    <mxGraphModel>
      <root>
        <mxCell id="0" />
        <mxCell id="1" parent="0" />
      </root>
    </mxGraphModel>
  </diagram>
</mxfile>
